<svg width="24" height="24" viewBox="0 0 24 24" fill="none" xmlns="http://www.w3.org/2000/svg">
<path d="M17.0479 4C19.1427 4.00011 20.8655 5.70765 20.9922 7.84375L21 8.05176C21.0506 13.1307 16.9958 16.8919 11.999 20.2959C7.15947 16.9992 3.20534 13.3667 3.00781 8.52734L3 8.05176C3.0231 5.81959 4.78975 4.00012 6.95215 4C8.28804 4 9.31131 4.65353 10.0391 5.37598C10.4007 5.73504 10.6739 6.09687 10.8555 6.36816C10.9456 6.50284 11.0118 6.61326 11.0537 6.68652C11.0746 6.72309 11.09 6.75043 11.0986 6.7666C11.1019 6.77274 11.104 6.77743 11.1055 6.78027C11.2749 7.11906 11.6212 7.33301 12 7.33301C12.3787 7.33301 12.7241 7.1189 12.8936 6.78027C12.895 6.77747 12.8979 6.77304 12.9014 6.7666C12.91 6.75043 12.9254 6.72309 12.9463 6.68652C12.9882 6.61326 13.0544 6.50284 13.1445 6.36816C13.3261 6.09687 13.5993 5.73505 13.9609 5.37598C14.6887 4.65352 15.712 4 17.0479 4Z" stroke="#020166" stroke-width="2" stroke-linecap="round" stroke-linejoin="round"/>
</svg>
